<svg width="161" height="161" viewBox="0 0 161 161" fill="none" xmlns="http://www.w3.org/2000/svg">
<g filter="url(#filter0_dii_560_53)">
<circle cx="70.5" cy="70.5" r="60.5" fill="#D9D9D9"/>
</g>
<circle cx="71.2102" cy="74.4051" r="31.595" fill="#ADA4F9"/>
<path d="M70.5004 35C50.8965 35 35 50.8934 35 70.5004C35 86.1853 45.1718 99.4921 59.2774 104.186C61.0513 104.515 61.7027 103.416 61.7027 102.479C61.7027 101.632 61.6697 98.8357 61.6545 95.8694C51.7784 98.0168 49.6945 91.6807 49.6945 91.6807C48.0793 87.5773 45.7526 86.4864 45.7526 86.4864C42.5317 84.2829 45.9954 84.3283 45.9954 84.3283C49.5603 84.5786 51.4376 87.9866 51.4376 87.9866C54.6038 93.4138 59.7424 91.8447 61.7681 90.9377C62.0869 88.643 63.0067 87.0771 64.022 86.1906C56.1367 85.2929 47.8482 82.2487 47.8482 68.6462C47.8482 64.7703 49.2348 61.6033 51.5057 59.1173C51.1369 58.223 49.9217 54.6123 51.8494 49.7226C51.8494 49.7226 54.8307 48.7683 61.6147 53.3613C64.4465 52.575 67.4832 52.1806 70.5004 52.1671C73.5171 52.1806 76.5567 52.575 79.3935 53.3617C86.1693 48.7683 89.1464 49.7229 89.1464 49.7229C91.0786 54.6123 89.8631 58.2234 89.4943 59.1173C91.7705 61.6033 93.1479 64.7703 93.1479 68.6462C93.1479 82.2814 84.8431 85.2836 76.9379 86.1622C78.2113 87.2642 79.3459 89.4243 79.3459 92.7365C79.3459 97.4864 79.3047 101.309 79.3047 102.479C79.3047 103.423 79.9437 104.53 81.7432 104.182C95.841 99.4822 106 86.18 106 70.5004C106 50.8937 90.1056 35 70.5004 35ZM48.2962 85.5708C48.2181 85.7472 47.9405 85.8001 47.6877 85.6791C47.43 85.5634 47.2855 85.3227 47.3689 85.1459C47.4452 84.9641 47.7236 84.9137 47.9802 85.0355C48.2383 85.1512 48.3853 85.394 48.2962 85.5708ZM50.0424 87.1289C49.8731 87.2862 49.5419 87.213 49.3175 86.9649C49.0853 86.7175 49.0417 86.3866 49.2135 86.2272C49.3878 86.0703 49.7091 86.1438 49.9416 86.3912C50.1738 86.6418 50.2192 86.9702 50.0424 87.1289ZM51.2402 89.1226C51.0226 89.2738 50.6669 89.1322 50.4471 88.8162C50.2295 88.5006 50.2295 88.1222 50.4517 87.9703C50.6722 87.8187 51.0226 87.955 51.2455 88.2685C51.4624 88.5894 51.4624 88.9682 51.2402 89.1226ZM53.2662 91.4315C53.0716 91.6459 52.6573 91.5884 52.3538 91.2955C52.0436 91.0094 51.9569 90.6033 52.1522 90.3885C52.3492 90.1734 52.766 90.2341 53.0716 90.5245C53.3798 90.8099 53.4738 91.2192 53.2662 91.4315ZM55.8846 92.2107C55.7987 92.4891 55.3997 92.6154 54.9975 92.4972C54.5964 92.3755 54.3333 92.0499 54.4146 91.7688C54.498 91.489 54.8988 91.3573 55.3039 91.4837C55.705 91.6047 55.9681 91.9282 55.8846 92.2107ZM58.8645 92.5416C58.8745 92.8341 58.5337 93.0769 58.1116 93.0823C57.687 93.0918 57.3437 92.8547 57.3391 92.5668C57.3391 92.2711 57.6724 92.0308 58.0967 92.0237C58.5191 92.0155 58.8645 92.2505 58.8645 92.5416ZM61.7918 92.4294C61.8426 92.7148 61.5494 93.0084 61.1301 93.0865C60.718 93.1618 60.3363 92.9853 60.2842 92.7021C60.233 92.4092 60.5316 92.1159 60.943 92.04C61.363 91.9672 61.7386 92.139 61.7918 92.4294Z" fill="#2D2D2D"/>
<defs>
<filter id="filter0_dii_560_53" x="-5" y="-5" width="166" height="166" filterUnits="userSpaceOnUse" color-interpolation-filters="sRGB">
<feFlood flood-opacity="0" result="BackgroundImageFix"/>
<feColorMatrix in="SourceAlpha" type="matrix" values="0 0 0 0 0 0 0 0 0 0 0 0 0 0 0 0 0 0 127 0" result="hardAlpha"/>
<feOffset dx="10" dy="10"/>
<feGaussianBlur stdDeviation="10"/>
<feComposite in2="hardAlpha" operator="out"/>
<feColorMatrix type="matrix" values="0 0 0 0 0 0 0 0 0 0 0 0 0 0 0 0 0 0 0.15 0"/>
<feBlend mode="normal" in2="BackgroundImageFix" result="effect1_dropShadow_560_53"/>
<feBlend mode="normal" in="SourceGraphic" in2="effect1_dropShadow_560_53" result="shape"/>
<feColorMatrix in="SourceAlpha" type="matrix" values="0 0 0 0 0 0 0 0 0 0 0 0 0 0 0 0 0 0 127 0" result="hardAlpha"/>
<feOffset dx="-15" dy="-15"/>
<feGaussianBlur stdDeviation="10"/>
<feComposite in2="hardAlpha" operator="arithmetic" k2="-1" k3="1"/>
<feColorMatrix type="matrix" values="0 0 0 0 0 0 0 0 0 0 0 0 0 0 0 0 0 0 0.2 0"/>
<feBlend mode="normal" in2="shape" result="effect2_innerShadow_560_53"/>
<feColorMatrix in="SourceAlpha" type="matrix" values="0 0 0 0 0 0 0 0 0 0 0 0 0 0 0 0 0 0 127 0" result="hardAlpha"/>
<feOffset dx="15" dy="15"/>
<feGaussianBlur stdDeviation="25"/>
<feComposite in2="hardAlpha" operator="arithmetic" k2="-1" k3="1"/>
<feColorMatrix type="matrix" values="0 0 0 0 1 0 0 0 0 1 0 0 0 0 1 0 0 0 0.75 0"/>
<feBlend mode="normal" in2="effect2_innerShadow_560_53" result="effect3_innerShadow_560_53"/>
</filter>
</defs>
</svg>
