<svg width="161" height="161" viewBox="0 0 161 161" fill="none" xmlns="http://www.w3.org/2000/svg">
<g filter="url(#filter0_dii_560_53)">
<circle cx="70.5" cy="70.5" r="60.5" fill="#D9D9D9"/>
</g>
<path d="M54.0909 92.7424V69.6992L46.6618 63.1613L40 59.5332V88.6759C40 90.9259 41.8951 92.7424 44.2274 92.7424H54.0909Z" fill="#2D2D2D"/>
<path d="M87.9092 92.7422H97.7727C100.112 92.7422 102 90.9189 102 88.6756V59.5332L94.4545 63.6887L87.9092 69.6989V92.7422Z" fill="#2D2D2D"/>
<path d="M54.0905 69.6992L53.0796 60.6955L54.0905 52.0781L70.9995 64.2775L87.9085 52.0781L89.0393 60.2303L87.9085 69.6992L70.9995 81.8985L54.0905 69.6992Z" fill="#2D2D2D"/>
<path d="M87.9092 52.0779V69.6989L102 59.533V54.111C102 49.0823 96.0326 46.2156 91.8549 49.2314L87.9092 52.0779Z" fill="#ADA4F9"/>
<path d="M40 59.5331L46.4807 64.2088L54.0909 69.699V52.078L50.1452 49.2315C45.9602 46.2155 40 49.0824 40 54.1109V59.5328V59.5331Z" fill="#ADA4F9"/>
<defs>
<filter id="filter0_dii_560_53" x="-5" y="-5" width="166" height="166" filterUnits="userSpaceOnUse" color-interpolation-filters="sRGB">
<feFlood flood-opacity="0" result="BackgroundImageFix"/>
<feColorMatrix in="SourceAlpha" type="matrix" values="0 0 0 0 0 0 0 0 0 0 0 0 0 0 0 0 0 0 127 0" result="hardAlpha"/>
<feOffset dx="10" dy="10"/>
<feGaussianBlur stdDeviation="10"/>
<feComposite in2="hardAlpha" operator="out"/>
<feColorMatrix type="matrix" values="0 0 0 0 0 0 0 0 0 0 0 0 0 0 0 0 0 0 0.15 0"/>
<feBlend mode="normal" in2="BackgroundImageFix" result="effect1_dropShadow_560_53"/>
<feBlend mode="normal" in="SourceGraphic" in2="effect1_dropShadow_560_53" result="shape"/>
<feColorMatrix in="SourceAlpha" type="matrix" values="0 0 0 0 0 0 0 0 0 0 0 0 0 0 0 0 0 0 127 0" result="hardAlpha"/>
<feOffset dx="-15" dy="-15"/>
<feGaussianBlur stdDeviation="10"/>
<feComposite in2="hardAlpha" operator="arithmetic" k2="-1" k3="1"/>
<feColorMatrix type="matrix" values="0 0 0 0 0 0 0 0 0 0 0 0 0 0 0 0 0 0 0.2 0"/>
<feBlend mode="normal" in2="shape" result="effect2_innerShadow_560_53"/>
<feColorMatrix in="SourceAlpha" type="matrix" values="0 0 0 0 0 0 0 0 0 0 0 0 0 0 0 0 0 0 127 0" result="hardAlpha"/>
<feOffset dx="15" dy="15"/>
<feGaussianBlur stdDeviation="25"/>
<feComposite in2="hardAlpha" operator="arithmetic" k2="-1" k3="1"/>
<feColorMatrix type="matrix" values="0 0 0 0 1 0 0 0 0 1 0 0 0 0 1 0 0 0 0.75 0"/>
<feBlend mode="normal" in2="effect2_innerShadow_560_53" result="effect3_innerShadow_560_53"/>
</filter>
</defs>
</svg>
