<svg width="52" height="61" viewBox="0 0 52 61" fill="none" xmlns="http://www.w3.org/2000/svg">
<path d="M4.72682 54.7744L0.0283813 0.772217H51.6735L46.9688 54.7658L25.8196 60.7722L4.72682 54.7744Z" fill="#2D2D2D"/>
<path d="M25.851 56.1822L42.9419 51.3286L46.9625 5.1886H25.851V56.1822Z" fill="#4B4A4A"/>
<path d="M25.851 24.7531H34.4069L34.9968 17.971H25.851V11.3474H25.874H42.0633L41.9085 13.1238L40.3207 31.3767H25.851V24.7531Z" fill="#ADA4F9"/>
<path d="M25.8907 41.9537L25.8614 41.9623L18.6611 39.9694L18.2008 34.6873H14.7011H11.7096L12.6154 45.0865L25.8593 48.8537L25.8907 48.8451V41.9537Z" fill="#897CF2"/>
<path d="M33.8567 31.0958L33.0785 39.9651L25.8677 41.958V48.8494L39.122 45.0865L39.2204 43.968L40.3437 31.0958H33.8567Z" fill="#ADA4F9"/>
<path d="M25.874 11.3474V15.4617V17.9538V17.971H10.2766H10.2557L10.126 16.4817L9.83107 13.1238L9.67627 11.3474H25.874Z" fill="#897CF2"/>
<path d="M25.851 24.7529V28.8672V31.3594V31.3765H18.7615H18.7406L18.6109 29.8872L18.318 26.5294L18.1632 24.7529H25.851Z" fill="#897CF2"/>
</svg>
