<svg width="43" height="61" viewBox="0 0 43 61" fill="none" xmlns="http://www.w3.org/2000/svg">
<path opacity="0.6" d="M21.364 0.772217H11.0306C5.32375 0.772217 0.697418 5.24931 0.697418 10.7721C0.697418 16.2949 5.32375 20.772 11.0306 20.772H21.364V0.772217Z" fill="#8D82E6"/>
<path opacity="0.4" d="M21.364 20.7716H11.0306C5.32375 20.7716 0.697418 25.2488 0.697418 30.7714C0.697418 36.2944 5.32375 40.7715 11.0306 40.7715H21.364V20.7716Z" fill="#8D82E6"/>
<path d="M42.0284 30.7714C42.0284 36.2944 37.402 40.7715 31.6949 40.7715C25.9882 40.7715 21.3618 36.2944 21.3618 30.7714C21.3618 25.2488 25.9882 20.7716 31.6949 20.7716C37.402 20.7716 42.0284 25.2488 42.0284 30.7714Z" fill="#8D82E6" fill-opacity="0.9"/>
<path opacity="0.2" d="M11.0306 40.7722H21.364V50.772C21.364 56.295 16.7376 60.7721 11.0306 60.7721C5.32375 60.7721 0.697418 56.295 0.697418 50.772C0.697418 45.2494 5.32375 40.7722 11.0306 40.7722Z" fill="#8D82E6"/>
<path opacity="0.8" d="M21.3618 0.772217H31.6949C37.402 0.772217 42.0284 5.24931 42.0284 10.7721C42.0284 16.2949 37.402 20.772 31.6949 20.772H21.3618V0.772217Z" fill="#8D82E6"/>
</svg>
