<svg width="61" height="61" viewBox="0 0 61 61" fill="none" xmlns="http://www.w3.org/2000/svg">
<path d="M2.2397 33.8005C0.567237 32.128 0.567237 29.4165 2.2397 27.744L27.9571 2.02656C29.6296 0.354102 32.3412 0.354102 34.0137 2.02656L59.731 27.744C61.4035 29.4165 61.4035 32.128 59.731 33.8005L34.0137 59.5178C32.3412 61.1903 29.6296 61.1903 27.9571 59.5178L2.2397 33.8005Z" fill="#2D2D2D"/>
<path d="M22.733 7.33264L20.1288 9.93694L26.855 16.6632C26.5829 17.2469 26.4309 17.898 26.4309 18.5845C26.4309 20.5337 27.6556 22.1968 29.3774 22.8463V39.3004C27.6556 39.9499 26.4309 41.613 26.4309 43.5621C26.4309 46.077 28.4696 48.1157 30.9845 48.1157C33.4994 48.1157 35.5381 46.077 35.5381 43.5621C35.5381 41.7951 34.5316 40.263 33.0605 39.5083V22.8688L39.4902 29.2984C39.2313 29.8703 39.0873 30.5053 39.0873 31.1738C39.0873 33.6887 41.126 35.7274 43.6409 35.7274C46.1557 35.7274 48.1944 33.6887 48.1944 31.1738C48.1944 28.659 46.1557 26.6203 43.6409 26.6203C43.1521 26.6203 42.6815 26.6972 42.2401 26.8397L35.3347 19.9343C35.4669 19.5079 35.5381 19.0545 35.5381 18.5845C35.5381 16.0696 33.4994 14.0309 30.9845 14.0309C30.5146 14.0309 30.0614 14.1021 29.6347 14.2343L22.733 7.33264Z" fill="#ADA4F9"/>
</svg>
