<svg width="53" height="61" viewBox="0 0 53 61" fill="none" xmlns="http://www.w3.org/2000/svg">
<path d="M4.73475 54.7744L0 0.772217H52.0254L47.2843 54.7658L25.9811 60.7722L4.73475 54.7744Z" fill="#2D2D2D"/>
<path d="M26.0127 56.1822L43.228 51.3286L47.2779 5.1886H26.0127V56.1822Z" fill="#4B4A4A"/>
<path d="M26.0127 25.2158H17.3945L16.8003 18.4336H26.0127V11.8101H25.9895H9.68234L9.83827 13.5886L11.4376 31.8393H26.0127V25.2158Z" fill="#897CF2"/>
<path d="M26.0127 42.4165L25.9832 42.4251L18.7304 40.4344L18.2668 35.1522H14.7416H11.7284L12.6408 45.5494L25.9832 49.3165L26.0127 49.3079V42.4165Z" fill="#897CF2"/>
<path d="M25.9895 25.2158V31.8394H34.0093L33.2549 40.4301L25.9895 42.423V49.3144L39.3424 45.5494L39.4394 44.4308L40.9691 26.9944L41.1293 25.2158H39.374H25.9895Z" fill="#ADA4F9"/>
<path d="M25.9895 11.8101V15.9243V18.4186V18.4336H41.7003H41.7214L41.852 16.9465L42.1492 13.5886L42.3051 11.8101H25.9895Z" fill="#ADA4F9"/>
</svg>
