<svg width="45" height="61" viewBox="0 0 45 61" fill="none" xmlns="http://www.w3.org/2000/svg">
<path d="M14.2261 47.0903C14.2261 47.0903 11.9373 48.4213 15.8549 48.8717C20.6009 49.4131 23.0266 49.3355 28.2567 48.3456C28.2567 48.3456 29.6318 49.2078 31.5521 49.9546C19.8275 54.9795 5.01702 49.6635 14.2261 47.0903Z" fill="#2D2D2D"/>
<path d="M12.7934 40.5331C12.7934 40.5331 10.2263 42.4333 14.1468 42.8388C19.2167 43.3618 23.2204 43.4046 30.1485 42.0705C30.1485 42.0705 31.1067 43.042 32.6135 43.5733C18.4378 47.7185 2.64853 43.9002 12.7934 40.5331Z" fill="#2D2D2D"/>
<path d="M24.8714 29.4098C27.7603 32.7359 24.1123 35.7289 24.1123 35.7289C24.1123 35.7289 31.4478 31.9421 28.079 27.2001C24.9326 22.7779 22.5197 20.5807 35.5821 13.005C35.5821 13.005 15.0784 18.1259 24.8714 29.4098Z" fill="#ADA4F9"/>
<path d="M40.3781 51.9405C40.3781 51.9405 42.0718 53.3361 38.5128 54.4157C31.7452 56.4659 10.3453 57.085 4.40052 54.4974C2.26352 53.5677 6.27101 52.2776 7.53161 52.0069C8.84629 51.7218 9.59758 51.7749 9.59758 51.7749C7.22102 50.1007 -5.76355 55.0622 3.00206 56.4831C26.9072 60.3599 46.5788 54.7374 40.3781 51.9405Z" fill="#2D2D2D"/>
<path d="M15.3267 33.739C15.3267 33.739 4.44137 36.3244 11.4719 37.2633C14.4405 37.6608 20.3581 37.5708 25.8703 37.109C30.3751 36.729 34.8986 35.921 34.8986 35.921C34.8986 35.921 33.3101 36.6013 32.1609 37.386C21.107 40.2932 -0.247025 38.9407 5.90053 35.967C11.0995 33.4539 15.3267 33.739 15.3267 33.739Z" fill="#2D2D2D"/>
<path d="M34.8537 44.6539C46.0904 38.8149 40.895 33.2036 37.2687 33.9595C36.3798 34.1445 35.9835 34.3048 35.9835 34.3048C35.9835 34.3048 36.3135 33.7879 36.9437 33.5642C44.1178 31.042 49.6351 41.003 34.6278 44.9482C34.6278 44.9482 34.8017 44.7929 34.8537 44.6539Z" fill="#2D2D2D"/>
<path d="M28.079 0.772217C28.079 0.772217 34.3021 6.99742 22.1766 16.57C12.4533 24.2489 19.9594 28.6272 22.1726 33.6295C16.4969 28.5087 12.3317 24.0008 15.1261 19.8052C19.2275 13.6465 30.5898 10.6606 28.079 0.772217Z" fill="#ADA4F9"/>
<path d="M16.4309 60.4764C27.2168 61.1668 43.7798 60.0933 44.172 54.9897C44.172 54.9897 43.418 56.9245 35.2581 58.461C26.0521 60.1934 14.6978 59.9911 7.96343 58.8808C7.96343 58.8808 9.34204 60.0218 16.4309 60.4764Z" fill="#2D2D2D"/>
</svg>
