<svg width="61" height="61" viewBox="0 0 61 61" fill="none" xmlns="http://www.w3.org/2000/svg">
<path d="M60.0284 0.772217H0.0283813V60.7722H60.0284V0.772217Z" fill="#2D2D2D"/>
<path d="M36.5453 50.4198L41.0003 47.4717C41.3495 48.5686 43.5604 51.1737 46.3531 51.1737C49.1458 51.1737 50.4424 49.6485 50.4424 48.6371C50.4424 45.8814 47.5907 44.9098 46.2211 44.4432C45.9976 44.3672 45.8139 44.3045 45.6882 44.2498C45.6235 44.2217 45.5261 44.1844 45.401 44.1366C43.8776 43.5546 38.2575 41.4074 38.2575 35.1833C38.2575 28.3279 44.8734 27.5396 46.3697 27.5396C47.3485 27.5396 52.0547 27.6595 54.3986 32.0641L50.0765 35.0806C49.1291 33.161 47.5548 32.527 46.5858 32.527C44.1921 32.527 43.6933 34.2817 43.6933 35.0806C43.6933 37.322 46.2941 38.3267 48.4899 39.1749C49.0645 39.3968 49.6113 39.608 50.0765 39.828C52.4703 40.959 55.9945 42.8102 55.9945 48.6371C55.9945 51.5558 53.5465 56.2811 47.3837 56.2811C39.1053 56.2811 36.911 51.311 36.5453 50.4198Z" fill="#ADA4F9"/>
<path d="M14.9352 51.005L19.5785 48.0586C19.9422 49.1549 21.3562 51.1763 23.4074 51.1763C25.4589 51.1763 26.5089 49.0693 26.5089 48.0586V28.1879H32.2194V48.0586C32.3119 50.7994 30.7918 56.2811 24.0832 56.2811C17.9152 56.2811 15.351 52.6154 14.9352 51.005Z" fill="#ADA4F9"/>
</svg>
