<svg width="60" height="61" viewBox="0 0 60 61" fill="none" xmlns="http://www.w3.org/2000/svg">
<path d="M30 60.7722C46.5685 60.7722 60 47.3408 60 30.7722C60 14.2037 46.5685 0.772217 30 0.772217C13.4315 0.772217 0 14.2037 0 30.7722C0 47.3408 13.4315 60.7722 30 60.7722Z" fill="#2D2D2D"/>
<path d="M38.0191 27.1066C36.1242 18.7435 31.6459 15.9937 31.1637 14.9431C30.6363 14.2019 30.102 12.8835 30.102 12.8835C30.0932 12.8613 30.0791 12.822 30.0627 12.7839C30.0082 13.5251 29.9801 13.8111 29.2793 14.5587C28.1941 15.4072 22.6266 20.0789 22.1736 29.5804C21.7512 38.4421 28.575 43.7226 29.4979 44.3959L29.6027 44.4703V44.4638C29.6086 44.5083 29.8957 46.5732 30.0973 48.7611H30.8203C30.99 47.2145 31.2442 45.6784 31.582 44.1597L31.6406 44.1216C32.0534 43.8256 32.447 43.5037 32.8189 43.1578L32.8611 43.1197C34.8229 41.3074 38.3496 37.1156 38.315 30.4324C38.3077 29.3175 38.2088 28.2052 38.0191 27.1066ZM30.0205 39.3925C30.0205 39.3925 30.0205 26.9636 30.4307 26.966C30.7506 26.966 31.1648 42.9978 31.1648 42.9978C30.5953 42.9292 30.0205 40.3593 30.0205 39.3925Z" fill="#ADA4F9"/>
</svg>
