<svg width="65" height="61" viewBox="0 0 65 61" fill="none" xmlns="http://www.w3.org/2000/svg">
<rect width="64.96" height="60" transform="translate(0.0253525 0.772217)" fill="#2D2D2D"/>
<rect x="3.02535" y="3.77222" width="59" height="54" fill="#ADA4F9"/>
<path d="M22.4951 25.3218H30.9877V26.0118H23.2736V31.2051H30.5277V31.8951H23.2736V37.5969H31.0761V38.2869H22.4951V25.3218ZM31.7485 25.3218H32.6508L36.6494 31.0235L40.7365 25.3218L46.2956 18.0792L37.1625 31.6228L41.8689 38.2869H40.9311L36.6494 32.222L32.35 38.2869H31.43L36.1717 31.6228L31.7485 25.3218ZM42.205 26.0118V25.3218H51.8831V26.0118H47.4244V38.2869H46.646V26.0118H42.205ZM11.8704 25.3218H12.8436L26.2622 45.8482L20.7169 38.2869L12.6843 26.3023L12.6489 38.2869H11.8704V25.3218ZM51.8046 37.3887C51.6456 37.3887 51.5263 37.2627 51.5263 37.0999C51.5263 36.9371 51.6456 36.8111 51.8046 36.8111C51.9656 36.8111 52.083 36.9371 52.083 37.0999C52.083 37.2627 51.9656 37.3887 51.8046 37.3887ZM52.5696 36.6289H52.9862C52.9918 36.8596 53.1566 37.0146 53.3989 37.0146C53.6697 37.0146 53.8231 36.8479 53.8231 36.5359V34.559H54.2472V36.5378C54.2472 37.0999 53.9291 37.4236 53.4027 37.4236C52.9085 37.4236 52.5696 37.1096 52.5696 36.6289ZM54.802 36.6037H55.2223C55.2583 36.8693 55.512 37.0379 55.8775 37.0379C56.2183 37.0379 56.4682 36.8576 56.4682 36.6096C56.4682 36.3964 56.3092 36.2684 55.9475 36.1812L55.5953 36.094C55.1012 35.9758 54.8758 35.7316 54.8758 35.3207C54.8758 34.8226 55.2735 34.4912 55.8699 34.4912C56.4247 34.4912 56.8299 34.8226 56.8545 35.2936H56.4417C56.402 35.0358 56.1823 34.8749 55.8642 34.8749C55.5291 34.8749 55.3056 35.0397 55.3056 35.2916C55.3056 35.4913 55.4496 35.6056 55.8055 35.6909L56.1066 35.7665C56.667 35.9002 56.8981 36.1328 56.8981 36.5533C56.8981 37.0883 56.4929 37.4236 55.8453 37.4236C55.2394 37.4236 54.8323 37.1038 54.802 36.6037Z" fill="#2D2D2D"/>
</svg>
