<svg width="61" height="61" viewBox="0 0 61 61" fill="none" xmlns="http://www.w3.org/2000/svg">
<path fill-rule="evenodd" clip-rule="evenodd" d="M24.5921 0.772217C19.884 0.772217 16.0674 4.46764 16.0674 9.02618V14.7405H30.8216V16.3278H9.51C4.80196 16.3278 0.985352 20.0232 0.985352 24.5817V36.9627C0.985352 41.5212 4.80196 45.2166 9.51 45.2166H14.4281V38.2326C14.4281 33.6741 18.2447 29.9785 22.9528 29.9785H38.6905C42.6743 29.9785 45.9036 26.8516 45.9036 22.9945V9.02618C45.9036 4.46764 42.0871 0.772217 37.379 0.772217H24.5921ZM22.6249 10.9309C24.2546 10.9309 25.5757 9.65175 25.5757 8.07381C25.5757 6.49585 24.2546 5.21665 22.6249 5.21665C20.9951 5.21665 19.674 6.49585 19.674 8.07381C19.674 9.65175 20.9951 10.9309 22.6249 10.9309Z" fill="url(#paint0_linear_524_107)"/>
<path fill-rule="evenodd" clip-rule="evenodd" d="M37.3786 60.7723C42.0867 60.7723 45.9034 57.0769 45.9034 52.5184V46.8041H31.1491V45.2169H52.4608C57.1689 45.2169 60.9853 41.5213 60.9853 36.9628V24.5818C60.9853 20.0233 57.1689 16.3279 52.4608 16.3279H47.5427V23.3119C47.5427 27.8706 43.726 31.566 39.0181 31.566H23.2802C19.2964 31.566 16.0671 34.6929 16.0671 38.55V52.5184C16.0671 57.0769 19.8838 60.7723 24.5917 60.7723H37.3786ZM39.346 50.6136C37.7161 50.6136 36.395 51.8927 36.395 53.4707C36.395 55.0487 37.7161 56.3278 39.346 56.3278C40.9756 56.3278 42.2967 55.0487 42.2967 53.4707C42.2967 51.8927 40.9756 50.6136 39.346 50.6136Z" fill="url(#paint1_linear_524_107)"/>
<defs>
<linearGradient id="paint0_linear_524_107" x1="23.4446" y1="0.772217" x2="23.4446" y2="45.2166" gradientUnits="userSpaceOnUse">
<stop stop-color="#2D2D2D"/>
<stop offset="1" stop-color="#2B2B2B"/>
</linearGradient>
<linearGradient id="paint1_linear_524_107" x1="38.5263" y1="16.3279" x2="38.5263" y2="60.7723" gradientUnits="userSpaceOnUse">
<stop stop-color="#ADA4F9"/>
<stop offset="1" stop-color="#867DD5"/>
</linearGradient>
</defs>
</svg>
