<svg width="61" height="61" viewBox="0 0 61 61" fill="none" xmlns="http://www.w3.org/2000/svg">
<path d="M0.697418 0.772217H60.6974V60.7722H0.697418V0.772217Z" fill="#2D2D2D"/>
<path d="M30.651 35.7532C33.422 35.7532 35.6684 33.5068 35.6684 30.7358C35.6684 27.9648 33.422 25.7184 30.651 25.7184C27.8799 25.7184 25.6336 27.9648 25.6336 30.7358C25.6336 33.5068 27.8799 35.7532 30.651 35.7532Z" fill="#ADA4F9"/>
<path d="M30.651 20.5352C37.3862 20.5352 43.6439 21.5018 48.3612 23.1251C54.0451 25.0817 57.5404 28.048 57.5404 30.7341C57.5404 33.533 53.8362 36.685 47.7327 38.7063C43.1183 40.235 37.0446 41.0342 30.651 41.0342C24.0949 41.0342 17.8886 40.2848 13.2211 38.6897C7.31656 36.6718 3.75993 33.4799 3.75993 30.7341C3.75993 28.0696 7.09769 25.1264 12.7021 23.1732C17.4376 21.5234 23.8495 20.5352 30.651 20.5352Z" stroke="#ADA4F9" stroke-width="2.40003" stroke-miterlimit="10"/>
<path d="M21.7719 25.6653C25.1361 19.8305 29.1007 14.8926 32.8645 11.6179C37.3995 7.67161 41.7155 6.12626 44.0418 7.46766C46.4659 8.86544 47.3464 13.6491 46.0481 19.9482C45.0665 24.7102 42.7253 30.3693 39.5301 35.9091C36.2554 41.588 32.5047 46.5905 28.7923 49.8371C24.0949 53.9442 19.5517 55.4299 17.1739 54.0586C14.8659 52.7272 13.9838 48.3664 15.0897 42.5348C16.0249 37.6036 18.3728 31.5565 21.7719 25.6653Z" stroke="#ADA4F9" stroke-width="2.40003" stroke-miterlimit="10"/>
<path d="M21.7802 35.9206C18.4059 30.0908 16.1078 24.1912 15.1494 19.2949C13.9954 13.3954 14.8112 8.88366 17.1358 7.53894C19.5583 6.13619 24.1413 7.76279 28.9498 12.0324C32.586 15.2607 36.3184 20.1156 39.5218 25.6504C42.8065 31.3244 45.2688 37.0714 46.2255 41.908C47.4376 48.0297 46.456 52.7072 44.0799 54.0818C41.7735 55.4166 37.5553 54.0039 33.0552 50.1322C29.2549 46.8608 25.1876 41.8069 21.7802 35.9206Z" stroke="#ADA4F9" stroke-width="2.40003" stroke-miterlimit="10"/>
</svg>
