<svg width="53" height="61" viewBox="0 0 53 61" fill="none" xmlns="http://www.w3.org/2000/svg">
<path d="M49.3506 8.68298C46.4808 4.82426 42.2498 2.14863 37.4796 1.1759C32.7093 0.203159 27.7404 1.00277 23.5381 3.41938L8.83592 12.3293C6.86524 13.4931 5.16775 15.0518 3.85471 16.9034C2.54166 18.7549 1.64269 20.8574 1.21672 23.0732C0.517739 26.7793 1.13574 30.6082 2.96775 33.9221C1.71226 35.7312 0.854338 37.7764 0.448447 39.9278C0.0306307 42.1738 0.0869828 44.4798 0.614023 46.7036C1.14106 48.9274 2.12761 51.0217 3.51276 52.8573C6.38256 56.7164 10.6133 59.3929 15.3836 60.3671C20.1539 61.3414 25.1234 60.5439 29.3274 58.1295L44.0318 49.2217C46.0018 48.0572 47.6988 46.4982 49.0118 44.6468C50.3247 42.7954 51.2241 40.6933 51.651 38.4779C52.3544 34.769 51.7362 30.9359 49.8999 27.6204C51.1568 25.8117 52.0155 23.7663 52.4214 21.6146C52.8392 19.3679 52.7822 17.0611 52.254 14.8368C51.7258 12.6126 50.7376 10.5181 49.3506 8.68298Z" fill="#2D2D2D"/>
<path d="M22.1044 53.5974C19.8056 54.1751 17.3826 54.063 15.1496 53.2756C12.9165 52.4881 10.9762 51.0617 9.58011 49.181C8.74412 48.0785 8.14804 46.8195 7.82877 45.4821C7.50949 44.1447 7.47384 42.7572 7.72401 41.4057C7.80724 40.9618 7.92356 40.5245 8.07202 40.0973L8.35 39.293L9.10295 39.8035C10.8508 41.0233 12.7952 41.9471 14.8551 42.5361L15.3914 42.6927L15.3366 43.201C15.2736 43.9404 15.4842 44.6774 15.9298 45.2773C16.3487 45.8579 16.9383 46.2995 17.6199 46.5432C18.3016 46.7869 19.0429 46.8212 19.7449 46.6414C20.0621 46.5607 20.3652 46.4342 20.6445 46.2661L35.3094 37.3561C35.6665 37.144 35.9743 36.8609 36.2129 36.5251C36.4515 36.1893 36.6157 35.8082 36.6949 35.4064C36.7738 35.0013 36.7671 34.5846 36.6752 34.1822C36.5834 33.7797 36.4083 33.3999 36.1609 33.0663C35.7398 32.499 35.1546 32.0685 34.481 31.8306C33.8075 31.5928 33.0766 31.5585 32.383 31.7322C32.0642 31.8132 31.7595 31.9404 31.479 32.1097L25.8494 35.5072C24.9241 36.0684 23.9176 36.4892 22.8639 36.7556C20.5633 37.3348 18.1381 37.2233 15.9029 36.4354C13.6677 35.6475 11.7257 34.2197 10.3287 32.3371C9.49825 31.231 8.90834 29.9696 8.59548 28.6311C8.28261 27.2926 8.25345 25.9054 8.50978 24.5553C8.76813 23.2255 9.30864 21.9636 10.0963 20.8514C10.884 19.7392 11.9012 18.8016 13.0822 18.0992L27.7646 9.18923C28.69 8.62879 29.6966 8.20865 30.7502 7.94304C33.0509 7.36251 35.4766 7.4732 37.7123 8.26074C39.9481 9.04829 41.8906 10.4763 43.2876 12.3594C44.1235 13.462 44.7195 14.7209 45.0387 16.0584C45.358 17.3958 45.3937 18.7832 45.1437 20.1347C45.0607 20.5786 44.9444 21.0159 44.7957 21.4431L44.5177 22.2474L43.7647 21.7391C42.0179 20.5176 40.0732 19.5937 38.0126 19.0065L37.4763 18.8477L37.531 18.3394C37.594 17.5997 37.3826 16.8625 36.9357 16.2631C36.5157 15.695 35.931 15.264 35.2576 15.026C34.5842 14.7881 33.8533 14.7543 33.16 14.929C32.8424 15.0096 32.5391 15.1369 32.2604 15.3065L17.5473 24.1864C17.1901 24.3974 16.8825 24.68 16.6445 25.0156C16.4065 25.3513 16.2435 25.7324 16.1662 26.134C16.0853 26.5394 16.091 26.9568 16.1829 27.3599C16.2748 27.7631 16.451 28.1431 16.7003 28.4762C17.1217 29.0432 17.707 29.4733 18.3805 29.7107C19.054 29.9482 19.7847 29.9821 20.4781 29.8082C20.7966 29.7271 21.1011 29.6006 21.3821 29.4329L26.9898 26.0332C27.9147 25.4718 28.9214 25.0516 29.9753 24.787C32.2761 24.2077 34.7014 24.3189 36.9369 25.1064C39.1724 25.8938 41.1149 27.3212 42.5128 29.2034C43.3465 30.3069 43.9404 31.5662 44.2578 32.9036C44.5751 34.2409 44.6092 35.6279 44.3579 36.9786C44.1013 38.31 43.5616 39.5735 42.7738 40.687C41.986 41.8004 40.9678 42.7389 39.7855 43.4412L25.1052 52.3512C24.1803 52.9126 23.1736 53.3328 22.1197 53.5974" fill="#ADA4F9"/>
</svg>
