<svg width="78" height="47" viewBox="0 0 78 47" fill="none" xmlns="http://www.w3.org/2000/svg">
<path d="M39.4841 0.772217C29.2178 0.772217 22.8013 5.90538 20.2347 16.1717C24.0846 11.0385 28.5761 9.11361 33.7093 10.3969C36.6384 11.1284 38.7302 13.2522 41.0497 15.6071C44.8258 19.4377 49.1922 23.8715 58.7335 23.8715C68.9998 23.8715 75.4163 18.7383 77.9828 8.47196C74.133 13.6051 69.6415 15.5301 64.5083 14.2468C61.5792 13.5153 59.4874 11.3915 57.1679 9.03661C53.395 5.20599 49.0286 0.772217 39.4841 0.772217ZM20.2347 23.8715C9.96839 23.8715 3.55193 29.0046 0.985352 39.271C4.83523 34.1378 9.32675 32.2129 14.4599 33.4962C17.389 34.2276 19.4808 36.3515 21.8003 38.7063C25.5764 42.5369 29.9428 46.9707 39.4841 46.9707C49.7504 46.9707 56.1669 41.8375 58.7335 31.5712C54.8836 36.7044 50.3921 38.6293 45.2589 37.346C42.3298 36.6146 40.238 34.4907 37.9185 32.1359C34.1456 28.3052 29.7792 23.8715 20.2347 23.8715Z" fill="#2D2D2D"/>
</svg>
