<svg width="60" height="60" viewBox="0 0 60 60" fill="none" xmlns="http://www.w3.org/2000/svg">
<path d="M29.5 14C22.1667 14 17.5833 17.5556 15.75 24.6667C18.5 21.1111 21.7083 19.7778 25.375 20.6667C27.4673 21.1733 28.9615 22.6444 30.6183 24.2756C33.3156 26.9289 36.4346 30 43.25 30C50.5833 30 55.1667 26.4444 57 19.3333C54.25 22.8889 51.0417 24.2222 47.375 23.3333C45.2827 22.8267 43.7885 21.3556 42.1317 19.7244C39.4367 17.0711 36.3177 14 29.5 14ZM15.75 30C8.41667 30 3.83333 33.5556 2 40.6667C4.75 37.1111 7.95833 35.7778 11.625 36.6667C13.7173 37.1733 15.2115 38.6444 16.8683 40.2756C19.5656 42.9289 22.6846 46 29.5 46C36.8333 46 41.4167 42.4444 43.25 35.3333C40.5 38.8889 37.2917 40.2222 33.625 39.3333C31.5327 38.8267 30.0385 37.3556 28.3817 35.7244C25.6867 33.0711 22.5677 30 15.75 30Z" fill="#2D2D2D"/>
</svg>
