<svg width="61" height="61" viewBox="0 0 61 61" fill="none" xmlns="http://www.w3.org/2000/svg">
<path d="M0.0283813 30.7722V60.7722H30.0284H60.0284V30.7722V0.772217H30.0284H0.0283813V30.7722Z" fill="#2D2D2D"/>
<path d="M13.2966 30.9713L13.2776 33.4284H17.1823H21.0871L21.0871 44.5237V55.6189H23.849H26.6109V44.5237L26.6109 33.4284H30.5157H34.4204V31.0189C34.4204 29.6856 34.3919 28.5713 34.3538 28.5427C34.3252 28.5046 29.5728 28.4856 23.8109 28.4951L13.3252 28.5237L13.2966 30.9713Z" fill="#ADA4F9"/>
<path d="M48.4424 28.4539C49.9663 28.8349 51.1282 29.511 52.1948 30.6158C52.7472 31.2063 53.5663 32.2825 53.6329 32.5396C53.652 32.6158 51.0424 34.3682 49.4615 35.3491C49.4043 35.3872 49.1758 35.1396 48.9186 34.7587C48.1472 33.6349 47.3377 33.1491 46.0996 33.0634C44.2805 32.9396 43.1091 33.892 43.1186 35.4825C43.1186 35.9491 43.1853 36.2253 43.3758 36.6063C43.7758 37.4349 44.5186 37.9301 46.852 38.9396C51.1472 40.7872 52.9853 42.0063 54.1282 43.7396C55.4043 45.673 55.6901 48.7587 54.8234 51.0539C53.871 53.5491 51.5091 55.2444 48.1853 55.8063C47.1567 55.9872 44.7186 55.9587 43.6139 55.7587C41.2043 55.3301 38.9186 54.1396 37.5091 52.5777C36.9567 51.9682 35.8805 50.3777 35.9472 50.2634C35.9758 50.2253 36.2234 50.073 36.4996 49.911C36.7663 49.7587 37.7758 49.1777 38.7282 48.6253L40.452 47.6253L40.8139 48.1587C41.3186 48.9301 42.4234 49.9872 43.0901 50.3396C45.0043 51.3491 47.6329 51.2063 48.9282 50.0444C49.4805 49.5396 49.7091 49.0158 49.7091 48.2444C49.7091 47.5491 49.6234 47.2444 49.2615 46.7206C48.7948 46.0539 47.8424 45.492 45.1377 44.3206C42.0424 42.9872 40.7091 42.1587 39.4901 40.8444C38.7853 40.0825 38.1186 38.8634 37.8424 37.8444C37.6139 36.9968 37.5567 34.873 37.7377 34.0158C38.3758 31.0253 40.6329 28.9396 43.8901 28.3206C44.9472 28.1206 47.4043 28.1968 48.4424 28.4539Z" fill="#ADA4F9"/>
</svg>
